/* XPM */
static char *_ab0bb4d6efe4995b98663d592a8d80844vn69A3JuWb5oY5[] = {
/* columns rows colors chars-per-pixel */
"32 32 14 1 ",
"  c None",
". c black",
"X c #3E4BB4",
"o c #3E4CB4",
"O c #3E4DB4",
"+ c #3E4EB5",
"@ c #3E4FB5",
"# c #3E50B5",
"$ c #3F51B6",
"% c #00BCD4",
"& c #00BFD8",
"* c #00C3DC",
"= c #F8BA97",
"- c white",
/* pixels */
"                                ",
"             ....               ",
"            .*%%....            ",
"            .%%&....            ",
"           .%%%$$$$X.           ",
"          .....$$$$$$.          ",
"         .$%%..$$$$$$.          ",
"         .$..$$$@$$$$%..        ",
"         .$..$$$$$$$$%..        ",
"         .-$@----==$$%..        ",
"         .-.=...---=$%..        ",
"         .-.=...---=$.          ",
"         .--=----===$...        ",
"         .--=----===@...        ",
"       ....=.....==@.%%%..      ",
"      .$%%%.=======.%%%%%$..    ",
"      .$$$%%.......%%%%%$$..    ",
"      .$@$%%.......%%%%%$$..    ",
"    ..$$$$%.%%%%%%%%%.%%$$$$.   ",
"    ..$$....%%%%%%%%%....$$$.   ",
"    ..$$$$..%%%%%%%%%...$$$$.   ",
"    ..$$$$..$@@$@@$$@...$$$$.   ",
"    ..@$$$..$$$$$$$$$...$@$$.   ",
"      .... .$$@$$$$$$.  ....    ",
"          .%%%%$$$$$%%..        ",
"        ..$%%%%%.%%%%$$$.       ",
"        ..$%%%%*.**%%$$$.       ",
"       ...$$X%%. ..%$$$$.       ",
"    ...@$$$$$..    .$$$$.....   ",
"   .$$$$$$$$$..    .@$@$$$$$$.  ",
"   ............    ...........  ",
"   ............    ...........  "
};
