/* XPM */
static char *c210981a83da42d2f6903e672745464e4ctCCvwvUBaHpnU3[] = {
/* columns rows colors chars-per-pixel */
"32 32 14 1 ",
"  c None",
". c black",
"X c #3E4BB4",
"o c #3E4CB4",
"O c #3E4DB4",
"+ c #3E4EB5",
"@ c #3E4FB5",
"# c #3E50B5",
"$ c #3F51B6",
"% c #00BCD4",
"& c #00BFD8",
"* c #00C3DC",
"= c #F8BA97",
"- c white",
/* pixels */
"                                ",
"               ....             ",
"            ....%%*.            ",
"            ....&%%.            ",
"           .X$$$$%%%.           ",
"          .$$$$$$.....          ",
"          .$$$$$$..%%$.         ",
"        ..%$$$$@$$$..$.         ",
"        ..%$$$$$$$$..$.         ",
"        ..%$$==----@$-.         ",
"        ..%$=---...=.-.         ",
"          .$=---...=.-.         ",
"        ...$===----=--.         ",
"        ...@===----=--.         ",
"      ..%%%.@==.....=....       ",
"    ..$%%%%%.=======.%%%$.      ",
"    ..$$%%%%%.......%%$$$.      ",
"    ..$$%%%%%.......%%$@$.      ",
"   .$$$$%%.%%%%%%%%%.%$$$$..    ",
"   .$$$....%%%%%%%%%....$$..    ",
"   .$$$$...%%%%%%%%%..$$$$..    ",
"   .$$$$...@$$@@$@@$..$$$$..    ",
"   .$$@$...$$$$$$$$$..$$$@..    ",
"    ....  .$$$$$$@$$. ....      ",
"        ..%%$$$$$%%%%.          ",
"       .$$$%%%%.%%%%%$..        ",
"       .$$$%%**.*%%%%$..        ",
"       .$$$$%.. .%%X$$...       ",
"   .....$$$$.    ..$$$$$@...    ",
"  .$$$$$$@$@.    ..$$$$$$$$$.   ",
"  ...........    ............   ",
"  ...........    ............   "
};
